<svg width="640" height="200" viewBox="0 0 640 200" fill="none" xmlns="http://www.w3.org/2000/svg">
<rect width="640" height="200" rx="10" fill="#1A1A1A"/>
<rect x="20" y="20" width="150" height="20" rx="5" fill="#333333"/>
<rect x="20" y="60" width="100" height="10" rx="5" fill="#444444"/>
<path d="M50 150 C 100 100, 150 170, 200 120 S 300 80, 350 130 S 450 100, 500 150" stroke="#0ea5e9" stroke-width="3" fill="none" stroke-linecap="round"/>
<circle cx="50" cy="150" r="5" fill="#0ea5e9"/>
<circle cx="200" cy="120" r="5" fill="#0ea5e9"/>
<circle cx="350" cy="130" r="5" fill="#0ea5e9"/>
<circle cx="500" cy="150" r="5" fill="#0ea5e9"/>
<rect x="550" y="40" width="70" height="120" rx="5" fill="#333333"/>
<rect x="560" y="50" width="50" height="10" rx="3" fill="#0ea5e9" fill-opacity="0.6"/>
<rect x="560" y="70" width="50" height="10" rx="3" fill="#444444"/>
<rect x="560" y="90" width="50" height="10" rx="3" fill="#0ea5e9" fill-opacity="0.8"/>
<rect x="560" y="110" width="50" height="10" rx="3" fill="#444444"/>
<rect x="560" y="130" width="50" height="10" rx="3" fill="#0ea5e9"/>
</svg>